<?xml version="1.0" encoding="UTF-8"?>
<svg width="41px" height="29px" viewBox="0 0 41 29" version="1.1" xmlns="http://www.w3.org/2000/svg" xmlns:xlink="http://www.w3.org/1999/xlink">
    <!-- Generator: Sketch 51.3 (57544) - http://www.bohemiancoding.com/sketch -->
    <title>logo</title>
    <desc>Created with Sketch.</desc>
    <defs></defs>
    <g id="Page-1" stroke="none" stroke-width="1" fill="none" fill-rule="evenodd">
        <g id="Desktop" transform="translate(-64.000000, -21.000000)" fill="#000000">
            <g id="NAV">
                <g id="logo" transform="translate(64.000000, 21.000000)">
                    <g id="Shape">
                        <polygon fill-rule="nonzero" points="20.5103944 0.141019608 30.9780986 4.88365686 20.5103944 9.6579098 10.0426901 4.88365686"></polygon>
                        <polygon fill-rule="nonzero" points="16.1014507 23.6873137 16.1014507 18.3188451 20.257638 21.0032216"></polygon>
                        <path d="M15.7896197,16.4884902 C15.5772166,16.351161 15.3050459,16.3395212 15.0814746,16.4582335 C14.8575915,16.5772757 14.718128,16.8073765 14.718463,17.0577375 L14.718463,20.1690963 C12.8304996,20.0005096 10.95397,19.7225304 9.09944183,19.3367963 L9.09944183,5.94675706 L19.8189207,10.8426963 L19.8189207,19.0900688 L15.7896197,16.4884902 Z" fill-rule="nonzero"></path>
                        <path d="M0.231909859,14.3777451 C0.231909859,13.3087255 1.37292254,12.3936333 2.32654789,11.8140314 C3.63340845,11.0206255 5.46836056,10.3117176 7.71596901,9.74678627 L7.71596901,19.0154137 C2.78851972,17.7734745 0.232025352,15.9369784 0.232025352,14.3774608 L0.231909859,14.3777451 Z" fill-rule="nonzero"></path>
                        <path d="M9.09907225,20.7207843 C10.9546803,21.0978582 12.8308634,21.370498 14.7181338,21.5374471 L14.7181338,24.9487 C14.7177879,25.1990837 14.8572566,25.42952 15.0811455,25.5482039 C15.3046937,25.6672461 15.5768644,25.6556063 15.7892906,25.5182771 L19.8185511,22.9160104 L19.8185511,28.5461614 L9.09907225,23.6824633 L9.09907225,20.7207843 Z" fill-rule="nonzero"></path>
                        <path d="M31.9210986,23.6821961 L21.2016197,28.5458941 L21.2016197,22.0226 L21.8982732,21.5727076 C22.0931156,21.4466827 22.2106297,21.2325433 22.2106297,21.0031135 C22.2106297,20.7736837 22.0931156,20.5595386 21.8982732,20.4338606 L21.2016197,19.9839682 L21.2016197,10.843282 L31.9211275,5.94734275 L31.9210986,19.3299898 C29.7376465,19.7855343 27.5251479,20.0941114 25.2993099,20.2537251 C24.9278556,20.2819916 24.6459085,20.5948845 24.6617887,20.9613251 C24.6773225,21.32776 24.9849496,21.6163839 25.3574028,21.6137114 C25.3752985,21.6137114 25.3867785,21.613029 25.4050148,21.6117212 C27.5942415,21.4501173 29.7705908,21.1508543 31.9211275,20.7155643 L31.9210986,23.6821961 Z" fill-rule="nonzero"></path>
                        <path d="M36.6228169,17.9549804 C35.5408789,18.3769418 34.432262,18.7290529 33.304069,19.0087039 L33.304069,9.72472353 C37.9721789,10.8875098 40.7839704,12.6435451 40.7839704,14.378598 C40.7839704,15.5902863 39.2698,16.8940922 36.6227014,17.955151 L36.6228169,17.9549804 Z" fill-rule="nonzero"></path>
                    </g>
                </g>
            </g>
        </g>
    </g>
</svg>